<svg width="33" height="32" viewBox="0 0 33 32" fill="none" xmlns="http://www.w3.org/2000/svg">
<path d="M16.373 0C7.33095 0 0 7.16395 0 16C0 24.8361 7.33095 32 16.373 32C25.415 32 32.7459 24.8361 32.7459 16C32.7459 7.16395 25.415 0 16.373 0ZM16.373 30.1416C8.38047 30.1416 1.9017 23.8104 1.9017 16C1.9017 8.18956 8.38047 1.85838 16.373 1.85838C24.3655 1.85838 30.8442 8.18956 30.8442 16C30.8442 23.8104 24.3655 30.1416 16.373 30.1416Z" fill="#06050F"/>
<path d="M16.3731 1.85828C8.38057 1.85828 1.90179 8.18946 1.90179 15.9999C1.90179 23.8103 8.38057 30.1415 16.3731 30.1415C24.3656 30.1415 30.8443 23.8103 30.8443 15.9999C30.8443 8.18946 24.3633 1.85828 16.3731 1.85828ZM16.3731 28.0421C9.56688 28.0421 4.05017 22.651 4.05017 15.9999C4.05017 9.34876 9.56688 3.95771 16.3731 3.95771C23.1793 3.95771 28.696 9.34876 28.696 15.9999C28.696 22.651 23.1793 28.0421 16.3731 28.0421Z" fill="#EDBA00"/>
<path d="M16.373 28.0422C23.1788 28.0422 28.6959 22.6507 28.6959 16C28.6959 9.3493 23.1788 3.95782 16.373 3.95782C9.56726 3.95782 4.05011 9.3493 4.05011 16C4.05011 22.6507 9.56726 28.0422 16.373 28.0422Z" fill="#06050F"/>
<path d="M25.1885 14.8123L23.5582 11.1635C23.7309 10.9378 23.8363 10.6551 23.8363 10.3505C23.8363 9.59442 23.2084 8.97862 22.4347 8.97862C22.2508 8.97862 22.0736 9.01368 21.9122 9.07723L18.5707 7.3109C18.5528 6.96465 18.4003 6.63373 18.1379 6.38829C17.8553 6.12092 17.4696 5.98067 17.0794 5.99601L16.9381 6.00478L16.9337 8.74851V10.7888V24.7397V25.9933L17.0727 25.9998C17.0996 25.9998 17.122 25.9998 17.1467 25.9998C17.51 25.9998 17.8553 25.8662 18.1245 25.6185C18.3779 25.3862 18.5348 25.0707 18.564 24.7376L22.9863 22.9274C23.1142 22.9625 23.2487 22.9844 23.39 22.9844C24.1637 22.9844 24.7916 22.3708 24.7916 21.6147C24.7916 21.3912 24.7355 21.1786 24.6369 20.9901L25.359 17.532C26.0273 17.4268 26.5386 16.8614 26.5386 16.1798C26.5386 15.4435 25.9376 14.8386 25.1885 14.8123ZM24.8746 14.8364C24.2467 14.9526 23.7668 15.4785 23.7354 16.1185C23.3362 15.9125 22.9325 15.7087 22.5311 15.5005C22.5266 15.5005 22.5244 15.4961 22.5199 15.4939C22.4279 15.4479 22.336 15.3997 22.2418 15.3514C22.2328 15.3471 22.2239 15.3427 22.2149 15.3383C22.1297 15.2945 22.0467 15.2506 21.9615 15.209C21.9413 15.198 21.9234 15.1871 21.9032 15.1783C21.8269 15.1389 21.7484 15.0972 21.6722 15.0578C21.6453 15.0446 21.6206 15.0315 21.5959 15.0205C21.5287 14.9877 21.4614 14.9504 21.3919 14.9175C21.356 14.8978 21.3156 14.8781 21.2775 14.8584C21.217 14.8277 21.1542 14.797 21.0936 14.7641C21.0532 14.7422 21.0106 14.7225 20.9703 14.7006C20.9097 14.6699 20.8469 14.637 20.7841 14.6063C20.7438 14.5844 20.7012 14.5647 20.663 14.5428C20.6047 14.5143 20.5487 14.4858 20.4926 14.4551C20.4433 14.4288 20.3939 14.4047 20.3424 14.3784C20.2908 14.3521 20.2414 14.328 20.1899 14.2995C20.136 14.2732 20.0845 14.2469 20.0306 14.2184L19.8804 14.1417L19.7189 14.0585C19.6673 14.0322 19.618 14.0059 19.5642 13.9796C19.5171 13.9533 19.4678 13.9292 19.4184 13.9051C19.3601 13.8744 19.3018 13.8459 19.2457 13.8152C19.2211 13.8021 19.2009 13.7911 19.1762 13.7823L21.2304 11.0496C21.4771 11.4484 21.9234 11.7158 22.4324 11.7158C22.7778 11.7158 23.0917 11.5931 23.3362 11.3914L24.8723 14.8299L24.8746 14.8364ZM18.4227 18.8074C18.4384 18.8008 18.4541 18.7964 18.4653 18.7899C18.4878 18.7789 18.5079 18.7702 18.5304 18.7614C18.5505 18.7526 18.5685 18.746 18.5864 18.7373C18.6089 18.7285 18.6268 18.7197 18.647 18.711C18.6851 18.6956 18.7255 18.6803 18.7636 18.665C18.7748 18.6606 18.7883 18.654 18.7972 18.6496C18.8264 18.6387 18.851 18.6255 18.8802 18.6167C18.9071 18.6058 18.9295 18.5948 18.9542 18.5861C18.9721 18.5795 18.9856 18.5729 19.0013 18.5663C19.0327 18.5532 19.0618 18.54 19.0932 18.5291L20.6877 20.1113L21.6004 21.0186C21.4143 20.9375 21.2259 20.8564 21.0398 20.7732C21.0129 20.7622 20.9882 20.7512 20.9613 20.7403C20.7931 20.6658 20.6227 20.5935 20.4545 20.5211C20.385 20.4905 20.3154 20.4598 20.2482 20.4291C20.1203 20.3721 19.9925 20.3173 19.8647 20.2625C19.7862 20.2297 19.7077 20.1924 19.6315 20.1595C19.5014 20.1026 19.3691 20.0456 19.239 19.9886C19.1717 19.9579 19.1045 19.9294 19.0372 19.901C18.8735 19.8286 18.7075 19.7563 18.5438 19.684C18.5618 19.5985 18.573 19.5153 18.573 19.4298C18.573 19.2128 18.5236 19.0003 18.4227 18.8074ZM19.165 18.185L17.4405 16.4713L23.2196 16.5283C23.2196 16.5283 23.2016 16.5348 23.1927 16.5392C22.8809 16.6663 22.567 16.7934 22.253 16.9227C22.2328 16.9293 22.2127 16.9381 22.1925 16.9468C22.04 17.0082 21.8875 17.0718 21.735 17.1331C21.7148 17.1419 21.6991 17.1485 21.6812 17.1572C21.3695 17.2843 21.0555 17.4114 20.7415 17.5407C20.7169 17.5517 20.6944 17.5605 20.672 17.5714C20.5218 17.6306 20.376 17.6919 20.2257 17.7533C20.1943 17.7665 20.1652 17.7774 20.1338 17.7884C19.988 17.8475 19.8445 17.9067 19.6987 17.9659C19.6786 17.9746 19.6606 17.9834 19.6404 17.9922C19.5081 18.0448 19.3781 18.0996 19.2457 18.1522C19.2188 18.1631 19.1919 18.1763 19.165 18.185ZM20.737 16.2149L17.3754 16.182L18.9991 14.0234C19.3556 14.2053 19.7122 14.3872 20.0688 14.5691C20.0777 14.5735 20.0889 14.58 20.0979 14.5844C20.2639 14.6699 20.4321 14.7532 20.598 14.8408C20.6204 14.8518 20.6406 14.8627 20.663 14.8715C20.8267 14.957 20.9905 15.0381 21.1519 15.1213C21.1721 15.1323 21.1923 15.1433 21.2125 15.152C21.5556 15.3273 21.8942 15.5005 22.2351 15.6758C22.2463 15.6824 22.2575 15.6889 22.2687 15.6955C22.4324 15.781 22.5984 15.8642 22.7621 15.9497C22.7845 15.9607 22.8047 15.9716 22.8249 15.9804C22.9863 16.0615 23.1433 16.1426 23.3048 16.2236C23.3138 16.2302 23.3227 16.2346 23.3317 16.239L20.7348 16.2127L20.737 16.2149ZM18.5169 12.3382C18.5505 12.3206 18.5842 12.3075 18.6178 12.2899C18.638 12.279 18.6559 12.268 18.6761 12.2593C18.7995 12.2001 18.9206 12.1387 19.0417 12.0774C19.0686 12.0642 19.0932 12.0511 19.1202 12.0379C19.2435 11.9766 19.3668 11.913 19.4902 11.8516C19.4902 11.8516 19.4917 11.8516 19.4947 11.8516C19.618 11.7881 19.7436 11.7245 19.8669 11.661C19.8961 11.6478 19.9208 11.6325 19.9477 11.6215C20.0688 11.558 20.1921 11.4966 20.3132 11.4331C20.3311 11.4221 20.3491 11.4134 20.3693 11.4024C20.4814 11.3454 20.5935 11.2862 20.7079 11.2293C20.7213 11.2205 20.7348 11.2139 20.7483 11.2074L18.9071 13.653C18.7344 13.5632 18.5573 13.4755 18.3846 13.3857C18.5012 13.1841 18.5662 12.9583 18.5685 12.726C18.5685 12.5946 18.5505 12.4653 18.5147 12.3403L18.5169 12.3382ZM22.4347 9.27008C23.0446 9.27008 23.5403 9.75221 23.5403 10.3505C23.5403 10.9488 23.0446 11.4309 22.4347 11.4309C21.8247 11.4309 21.3291 10.9466 21.3291 10.3505C21.3291 9.7544 21.8247 9.27008 22.4347 9.27008ZM17.2342 6.29186C17.4943 6.31158 17.7365 6.41678 17.9294 6.59867C18.1514 6.80686 18.277 7.09394 18.2747 7.3876C18.2747 7.68126 18.1469 7.95739 17.9204 8.16558C17.7275 8.34089 17.4876 8.44609 17.2319 8.46362V6.29186H17.2342ZM17.2297 8.75508C17.5638 8.73536 17.8755 8.60606 18.1245 8.37815C18.3442 8.17653 18.4878 7.91356 18.5438 7.63305L21.5937 9.25255C21.2506 9.50457 21.0286 9.90342 21.0286 10.3505C21.0286 10.4447 21.0398 10.5368 21.06 10.6266L17.2319 10.6441V8.75508H17.2297ZM17.2297 10.9334L19.9611 10.9203H20.6586C20.6586 10.9203 20.6518 10.9203 20.6473 10.9203C20.524 10.986 20.3984 11.0518 20.2728 11.1153C20.2482 11.1285 20.2257 11.1416 20.2011 11.1526C20.0755 11.2161 19.9521 11.2797 19.8288 11.3432C19.8041 11.3564 19.7795 11.3695 19.7548 11.3805C19.6315 11.444 19.5104 11.5054 19.387 11.5689C19.3803 11.5733 19.3736 11.5755 19.3668 11.5799C19.239 11.6435 19.1112 11.7092 18.9834 11.7728C18.9564 11.7859 18.934 11.7991 18.9071 11.81C18.7815 11.8736 18.6582 11.9349 18.5348 11.9985L18.4698 12.0292C18.4474 12.0401 18.425 12.0511 18.4025 12.0598C18.333 11.9327 18.2433 11.8144 18.1334 11.7136C17.889 11.4835 17.5638 11.3454 17.2274 11.3235V10.9268L17.2297 10.9334ZM18.2747 12.7173C18.2747 13.0109 18.1469 13.2893 17.9204 13.4953C17.7275 13.6728 17.4876 13.778 17.2319 13.7933V11.6215C17.4943 11.6413 17.7365 11.7465 17.9294 11.9283C18.1514 12.1387 18.277 12.4258 18.2747 12.7173ZM17.2297 14.087C17.5638 14.0672 17.8755 13.9357 18.1245 13.7078C18.1559 13.6793 18.1828 13.6509 18.2119 13.6202C18.3846 13.71 18.5595 13.7977 18.7322 13.8853L17.2297 15.8796V14.087ZM17.2297 16.6795L18.7838 18.2201L18.8712 18.3056C18.6582 18.3932 18.4564 18.4743 18.259 18.5576C18.2231 18.5116 18.1828 18.4655 18.1379 18.4261C17.8935 18.1938 17.5683 18.0557 17.2319 18.036V16.6795H17.2297ZM18.2747 19.4276C18.2747 19.7213 18.1469 19.9974 17.9204 20.2056C17.7275 20.3809 17.4876 20.4861 17.2319 20.5036V18.3319C17.4943 18.3516 17.7365 18.4568 17.9294 18.6387C18.1514 18.8469 18.277 19.1339 18.2747 19.4276ZM17.2297 20.7929C17.5638 20.7732 17.8755 20.6439 18.1245 20.416C18.2657 20.2867 18.3756 20.1333 18.4541 19.9623C18.4743 19.9711 18.4922 19.9798 18.5124 19.9886C18.638 20.0434 18.7636 20.0982 18.8914 20.153C18.9878 20.1946 19.082 20.2384 19.1785 20.2779C19.2816 20.3239 19.387 20.3699 19.4902 20.416C19.5889 20.4576 19.6898 20.5036 19.7862 20.5474C19.8871 20.5891 19.9903 20.6351 20.0889 20.6789C20.1876 20.7228 20.2885 20.7666 20.3872 20.8104C20.4881 20.8542 20.5913 20.9003 20.69 20.9441C20.7886 20.9857 20.8873 21.0296 20.986 21.0734C21.0824 21.115 21.1811 21.1589 21.2775 21.2005C21.3762 21.2443 21.4771 21.2882 21.5758 21.332L17.2252 21.3868V20.7929H17.2297ZM17.9204 25.4081C17.7275 25.5857 17.4876 25.6908 17.2297 25.7062L17.2342 23.5344C17.4943 23.5542 17.7365 23.6593 17.9294 23.8412C18.1514 24.0516 18.277 24.3387 18.2747 24.6302C18.2702 24.9238 18.1446 25.2 17.9204 25.4081ZM18.555 24.4286C18.5102 24.1305 18.3644 23.8456 18.1357 23.633C17.8912 23.4029 17.5683 23.2649 17.2319 23.243V21.6782L21.9862 21.6169C21.9862 22.0946 22.2418 22.5176 22.623 22.763L18.555 24.4286ZM23.39 22.6973C22.78 22.6973 22.2844 22.213 22.2844 21.6169C22.2844 21.0208 22.78 20.5365 23.39 20.5365C24 20.5365 24.4956 21.0186 24.4956 21.6169C24.4956 22.2152 24 22.6973 23.39 22.6973ZM24.9396 18.093L24.3992 20.668C24.1457 20.4072 23.7869 20.245 23.39 20.245C22.8047 20.245 22.3046 20.5957 22.0938 21.0931L19.3915 18.4086C19.3915 18.4086 19.405 18.4042 19.4117 18.402C19.4857 18.3713 19.5619 18.3406 19.6359 18.3077C19.6606 18.299 19.6853 18.288 19.71 18.2771C19.784 18.2464 19.858 18.2179 19.9297 18.1872C19.9544 18.1763 19.9768 18.1653 20.0015 18.1565C20.0755 18.1259 20.1473 18.0974 20.2213 18.0645C20.2482 18.0535 20.2706 18.0448 20.2975 18.0338C20.3693 18.0031 20.441 17.9746 20.5128 17.944C20.5397 17.933 20.5621 17.9242 20.5868 17.9133C20.663 17.8826 20.737 17.8519 20.8111 17.8212C20.8335 17.8125 20.8537 17.8037 20.8761 17.7949C20.9501 17.7643 21.0241 17.7336 21.0981 17.7029C21.125 17.6919 21.1474 17.681 21.1743 17.6722C21.2461 17.6415 21.3179 17.613 21.3896 17.5846C21.4143 17.5736 21.4345 17.5648 21.4592 17.5539C21.5354 17.5232 21.6094 17.4925 21.6834 17.4618C21.6969 17.4553 21.7126 17.4487 21.726 17.4421C22.4279 17.1572 23.1231 16.8745 23.8094 16.594C23.9865 17.1178 24.4776 17.5013 25.0607 17.5342L24.9463 18.0776L24.9396 18.093ZM25.1325 17.2602C24.5225 17.2602 24.0269 16.7781 24.0269 16.1798C24.0269 15.5815 24.5225 15.0994 25.1325 15.0994C25.7425 15.0994 26.2381 15.5837 26.2381 16.1798C26.2381 16.7759 25.7447 17.2602 25.1325 17.2602Z" fill="#EDBA00"/>
<path d="M15.8122 24.7396V8.75059L15.8078 6.00686L15.6642 5.99809C15.2763 5.98056 14.8905 6.123 14.6057 6.39036C14.3456 6.63581 14.1909 6.96892 14.1752 7.31298L10.8337 9.07931C10.6723 9.01576 10.4951 8.98069 10.3112 8.98069C9.53755 8.98069 8.90739 9.5965 8.90739 10.3526C8.90739 10.6572 9.01054 10.9399 9.18546 11.1656L7.55736 14.8144C6.80834 14.8429 6.20734 15.4456 6.20734 16.1819C6.20734 16.8635 6.71864 17.4289 7.38468 17.534L8.10903 20.9922C8.01036 21.1807 7.95205 21.3932 7.95205 21.6168C7.95205 22.3728 8.58221 22.9864 9.3559 22.9864C9.49494 22.9864 9.63173 22.9645 9.75956 22.9295L14.1797 24.7396C14.2133 25.0727 14.368 25.3883 14.6214 25.6206C14.8905 25.8682 15.2337 26.0019 15.597 26.0019C15.6239 26.0019 15.6463 26.0019 15.671 26.0019L15.8145 25.9954V24.7418L15.8122 24.7396ZM14.6057 18.4282C14.5631 18.4676 14.5228 18.5136 14.4846 18.5597C14.2873 18.4764 14.0855 18.3953 13.8747 18.3076L13.9599 18.2222L15.514 16.6816V18.0381C15.1776 18.0578 14.8547 18.1959 14.608 18.4282H14.6057ZM15.5117 20.5035C15.2561 20.4838 15.0161 20.3808 14.8233 20.2055C14.599 19.9973 14.4712 19.7233 14.4712 19.4275C14.4667 19.1338 14.5923 18.8446 14.8165 18.6386C15.0094 18.4567 15.2516 18.3515 15.5117 18.3317V20.5035ZM14.8233 13.4951C14.599 13.2891 14.4712 13.013 14.4712 12.7172C14.4667 12.4257 14.5923 12.1364 14.8165 11.9282C15.0094 11.7463 15.2516 11.6412 15.5117 11.6214V13.7932C15.2583 13.7757 15.0184 13.6727 14.8255 13.4951H14.8233ZM15.5117 14.0868V15.8795L14.0115 13.8852C14.1841 13.7976 14.3591 13.7099 14.5317 13.6201C14.5609 13.6507 14.5878 13.6792 14.6192 13.7077C14.8659 13.9356 15.1798 14.0671 15.5117 14.0868ZM14.6057 11.7179C14.4981 11.8187 14.4084 11.937 14.3366 12.0641C14.3142 12.0532 14.294 12.0422 14.2716 12.0334C14.2492 12.0247 14.229 12.0115 14.2066 12.0027C14.0832 11.9392 13.9576 11.8778 13.8343 11.8143C13.8074 11.8011 13.7827 11.788 13.7558 11.777C13.6302 11.7135 13.5024 11.6477 13.3746 11.5842C13.3678 11.5798 13.3611 11.5776 13.3544 11.5732C13.2311 11.5097 13.1077 11.4483 12.9844 11.3847C12.9597 11.3716 12.9373 11.3585 12.9126 11.3475C12.7893 11.2839 12.6637 11.2204 12.5403 11.1568C12.5157 11.1437 12.491 11.1305 12.4663 11.1196C12.343 11.056 12.2174 10.9903 12.0918 10.9245C12.0918 10.9245 12.0851 10.9245 12.0829 10.9202H12.7803L15.5117 10.9355V11.3322C15.1754 11.3541 14.8524 11.4899 14.6057 11.7222V11.7179ZM12.3721 11.3979C12.3923 11.4089 12.408 11.4176 12.4282 11.4286C12.5493 11.4921 12.6704 11.5535 12.7938 11.617C12.8207 11.6302 12.8453 11.6455 12.8722 11.6565C12.9978 11.72 13.1212 11.7836 13.2467 11.8472C13.3701 11.9085 13.4934 11.9721 13.619 12.0334C13.6459 12.0488 13.6706 12.0619 13.6975 12.0729C13.8186 12.1342 13.9397 12.1956 14.0608 12.2548C14.081 12.2657 14.1012 12.2767 14.1214 12.2854C14.155 12.303 14.1886 12.3161 14.2223 12.3337C14.1864 12.4586 14.1662 12.5879 14.1662 12.7194C14.1662 12.9495 14.2335 13.1774 14.3501 13.379C14.1774 13.4688 14.0025 13.5565 13.8276 13.6464L11.9887 11.2007C12.0021 11.2072 12.0178 11.2138 12.029 11.2226C12.1412 11.2796 12.2533 11.3387 12.3677 11.3957L12.3721 11.3979ZM15.3682 16.1797L12.0066 16.2126L9.40972 16.2389C9.40972 16.2389 9.42766 16.2301 9.43663 16.2235C9.59585 16.1425 9.75507 16.0614 9.9143 15.9803C9.93672 15.9693 9.95691 15.9584 9.97709 15.9496C10.1408 15.8641 10.309 15.7809 10.4727 15.6954C10.4839 15.6888 10.4951 15.6822 10.5063 15.6757C10.845 15.5025 11.1858 15.3294 11.5289 15.1519C11.5491 15.1409 11.5671 15.13 11.5895 15.1212C11.751 15.0379 11.9147 14.9569 12.0761 14.8714C12.0986 14.8604 12.1187 14.8495 12.1412 14.8407C12.3071 14.7531 12.4753 14.6698 12.6413 14.5843C12.6525 14.5799 12.6614 14.5734 12.6727 14.569C13.027 14.3871 13.3858 14.2052 13.7424 14.0233L15.366 16.1819L15.3682 16.1797ZM15.3009 16.4734L13.5786 18.1871C13.5495 18.1761 13.5248 18.163 13.4957 18.1542C13.3656 18.1016 13.2333 18.0469 13.1032 17.9943C13.083 17.9855 13.0629 17.9767 13.0427 17.968C12.8969 17.9088 12.7534 17.8496 12.6076 17.7904C12.5762 17.7773 12.5493 17.7663 12.5179 17.7554C12.3677 17.694 12.2197 17.6327 12.0716 17.5735C12.047 17.5625 12.0268 17.5538 12.0021 17.5428C11.6882 17.4135 11.3742 17.2864 11.0625 17.1593C11.0446 17.1505 11.0266 17.144 11.0087 17.1352C10.8539 17.0738 10.7037 17.0103 10.5489 16.9489C10.5288 16.9402 10.5108 16.9314 10.4906 16.9248C10.1744 16.7955 9.86272 16.6684 9.551 16.5413C9.54203 16.5369 9.53306 16.5325 9.52409 16.5303L15.3009 16.4734ZM13.6482 18.5312C13.6796 18.5443 13.711 18.5575 13.7424 18.5684C13.7581 18.575 13.7738 18.5816 13.7872 18.5881C13.8141 18.5969 13.8365 18.6079 13.8612 18.6188C13.8904 18.6298 13.9173 18.6429 13.9464 18.6517C13.9576 18.6561 13.9689 18.6627 13.9778 18.667C14.0182 18.6824 14.0563 18.6977 14.0944 18.7131C14.1169 18.7218 14.1348 18.7306 14.155 18.7394C14.1752 18.7481 14.1931 18.7547 14.2111 18.7635C14.2335 18.7722 14.2537 18.781 14.2761 18.792C14.2918 18.7985 14.3075 18.8029 14.3209 18.8095C14.2223 19.0023 14.1662 19.2171 14.1684 19.4319C14.1684 19.5173 14.1797 19.6006 14.1976 19.6861C14.0339 19.7584 13.8702 19.8307 13.7065 19.903C13.6392 19.9315 13.5719 19.96 13.5046 19.9907C13.3746 20.0477 13.2423 20.1047 13.1122 20.1616C13.0337 20.1945 12.9552 20.2318 12.879 20.2646C12.7511 20.3194 12.6233 20.3742 12.4955 20.4312C12.426 20.4619 12.3565 20.4904 12.2869 20.5232C12.1187 20.5977 11.9505 20.6701 11.7824 20.7424C11.7554 20.7555 11.7308 20.7665 11.7016 20.7752C11.5155 20.8585 11.3294 20.9396 11.1432 21.0207L12.0559 20.1134L13.6482 18.5312ZM11.4617 21.1982C11.5581 21.1566 11.6568 21.1127 11.7532 21.0711C11.8496 21.0273 11.9505 20.9834 12.047 20.9418C12.1479 20.898 12.2511 20.8519 12.3497 20.8081C12.4484 20.7643 12.5493 20.7205 12.6502 20.6766C12.7489 20.6328 12.8521 20.5868 12.9507 20.5451C13.0494 20.5013 13.1503 20.4553 13.249 20.4137C13.3522 20.3676 13.4576 20.3216 13.5607 20.2756C13.6571 20.2361 13.7513 20.1923 13.8478 20.1507C13.9733 20.0959 14.1012 20.0411 14.2268 19.9863C14.2469 19.9775 14.2649 19.9688 14.2851 19.96C14.3613 20.1288 14.4734 20.2844 14.6147 20.4137C14.8614 20.6416 15.1754 20.7709 15.5073 20.7906V21.3845L11.1567 21.3297C11.2554 21.2859 11.3563 21.242 11.4572 21.1982H11.4617ZM14.8143 6.59856C15.0072 6.41666 15.2494 6.31147 15.5073 6.29175L15.5117 8.46351C15.2561 8.44378 15.0161 8.34078 14.8233 8.16546C14.599 7.95727 14.4712 7.68334 14.4712 7.38749C14.4667 7.09383 14.5923 6.80455 14.8165 6.59856H14.8143ZM14.1976 7.63074C14.2537 7.91344 14.4017 8.17423 14.6192 8.37585C14.8659 8.60376 15.1798 8.73306 15.5117 8.75278V10.6418L11.6859 10.6243C11.7061 10.5345 11.7151 10.4424 11.7151 10.3482C11.7151 9.89893 11.4908 9.50008 11.15 9.25025L14.1998 7.63074H14.1976ZM10.3112 9.26997C10.9212 9.26997 11.4168 9.7521 11.4168 10.3504C11.4168 10.9486 10.9212 11.4308 10.3112 11.4308C9.70125 11.4308 9.20565 10.9465 9.20565 10.3504C9.20565 9.75429 9.69901 9.26997 10.3112 9.26997ZM9.40523 11.3979C9.64967 11.5995 9.96588 11.7222 10.3112 11.7222C10.8203 11.7222 11.2666 11.4527 11.511 11.056L13.5652 13.7888C13.5428 13.7998 13.5203 13.8107 13.4979 13.8217C13.4396 13.8524 13.3835 13.8808 13.3252 13.9115C13.2781 13.9356 13.2288 13.9597 13.1772 13.986C13.1257 14.0123 13.0763 14.0386 13.0225 14.0649C12.9709 14.0934 12.9171 14.1197 12.861 14.1482C12.8117 14.1745 12.7624 14.1986 12.7108 14.2249C12.6592 14.2534 12.6054 14.2797 12.5516 14.306C12.5 14.3345 12.4506 14.3586 12.3991 14.3849C12.3475 14.4112 12.3004 14.4353 12.2488 14.4616C12.1927 14.4923 12.1344 14.5208 12.0784 14.5492C12.038 14.5712 11.9954 14.5909 11.9573 14.6128C11.8945 14.6435 11.8317 14.6764 11.7689 14.707C11.7285 14.7289 11.6859 14.7487 11.6456 14.7706C11.585 14.8013 11.5245 14.8319 11.4639 14.8648C11.4258 14.8845 11.3854 14.9043 11.3473 14.924C11.28 14.9569 11.2127 14.9941 11.1455 15.027C11.1186 15.0401 11.0961 15.0533 11.0692 15.0642L10.836 15.1848C10.8158 15.1935 10.7979 15.2045 10.7799 15.2155C10.6947 15.2571 10.6117 15.3009 10.5265 15.3448C10.5175 15.3491 10.5086 15.3535 10.4974 15.3579C10.4054 15.4061 10.3135 15.4521 10.2193 15.5004C10.2193 15.5004 10.2126 15.5047 10.2103 15.5069C9.80441 15.7151 9.40524 15.9189 9.00382 16.1249C8.97242 15.485 8.49475 14.9612 7.86684 14.8429L9.40075 11.4045L9.40523 11.3979ZM6.50336 16.1797C6.50336 15.5836 6.99896 15.0993 7.60894 15.0993C8.21892 15.0993 8.71452 15.5836 8.71452 16.1797C8.71452 16.7758 8.21892 17.2601 7.60894 17.2601C6.99896 17.2601 6.50336 16.778 6.50336 16.1797ZM7.80629 18.0929L7.69191 17.5494C8.27722 17.5165 8.7661 17.133 8.94327 16.6092C9.62949 16.8897 10.3247 17.1703 11.0266 17.4573C11.0423 17.4639 11.058 17.4705 11.0715 17.4771C11.1455 17.5077 11.2217 17.5384 11.2957 17.5691C11.3181 17.5801 11.3406 17.5888 11.363 17.5998C11.4348 17.6283 11.5088 17.6568 11.5805 17.6874C11.6052 17.6984 11.6299 17.7094 11.6545 17.7181C11.7308 17.7488 11.8048 17.7773 11.8788 17.8102C11.9012 17.8189 11.9214 17.8277 11.9438 17.8365C12.0178 17.8671 12.0918 17.8978 12.1658 17.9285C12.1905 17.9395 12.2152 17.9482 12.2398 17.9592C12.3116 17.9899 12.3834 18.0184 12.4574 18.049C12.482 18.06 12.5067 18.0688 12.5314 18.0797C12.6054 18.1104 12.6794 18.1411 12.7534 18.1718C12.7781 18.1805 12.7982 18.1915 12.8229 18.2024C12.8969 18.2331 12.9709 18.2616 13.0427 18.2923C13.0696 18.3033 13.092 18.3142 13.1189 18.323C13.1929 18.3537 13.2669 18.3843 13.3432 18.4172C13.3499 18.4172 13.3566 18.4216 13.3634 18.4238L10.6611 21.1083C10.4503 20.6109 9.94794 20.2602 9.36487 20.2602C8.96569 20.2602 8.60912 20.4224 8.35347 20.6832L7.81526 18.1082L7.80629 18.0929ZM9.3559 22.6972C8.74592 22.6972 8.25031 22.2129 8.25031 21.6168C8.25031 21.0207 8.74368 20.5364 9.3559 20.5364C9.96812 20.5364 10.4615 21.0185 10.4615 21.6168C10.4615 22.215 9.96588 22.6972 9.3559 22.6972ZM10.1229 22.7629C10.5041 22.5175 10.7575 22.0967 10.7575 21.6168L15.5117 21.6781V23.2429C15.1776 23.2648 14.8547 23.4006 14.6102 23.6329C14.3815 23.8477 14.2357 24.1304 14.1909 24.4284L10.1229 22.7629ZM14.8255 25.408C14.6013 25.1998 14.4734 24.9259 14.4734 24.6301C14.4689 24.3386 14.5945 24.0493 14.8188 23.8411C15.0116 23.6592 15.2538 23.554 15.514 23.5343V25.7061C15.2606 25.6885 15.0206 25.5855 14.8278 25.408H14.8255Z" fill="#EDBA00"/>
</svg>
