<svg width="126" height="26" viewBox="0 0 126 26" fill="none" xmlns="http://www.w3.org/2000/svg">
<path d="M89.6815 4.97464L89.6919 5.00297C89.7043 5.66264 89.4827 6.18875 89.0292 6.58334C88.5758 6.97793 87.9794 7.17623 87.2402 7.17623C86.5009 7.17623 85.8549 6.90508 85.3848 6.3648C84.9148 5.82452 84.6787 5.12438 84.6787 4.26236V3.16561C84.6787 2.30965 84.9148 1.60749 85.3848 1.06316C85.8549 0.518833 86.4719 0.247681 87.2402 0.247681C88.0084 0.247681 88.5861 0.439916 89.0354 0.826409C89.4848 1.21088 89.7043 1.74307 89.6919 2.4169L89.6815 2.44523H89.1514C89.1514 1.90292 88.9816 1.48001 88.642 1.17648C88.3024 0.87295 87.8344 0.721186 87.2381 0.721186C86.6417 0.721186 86.153 0.949844 85.7886 1.40514C85.4242 1.86043 85.2419 2.44523 85.2419 3.15751V4.26236C85.2419 4.98273 85.4242 5.57158 85.7886 6.02687C86.153 6.48216 86.6355 6.7088 87.2381 6.7088C87.8407 6.7088 88.3024 6.56108 88.642 6.26565C88.9816 5.97021 89.1514 5.5392 89.1514 4.97464H89.6815Z" fill="#EFEBE7"/>
<path d="M93.3549 2.55042L92.9532 2.52209C92.597 2.52209 92.3051 2.61922 92.0752 2.8155C91.8474 3.01179 91.6839 3.28091 91.5845 3.62289V7.07705H91.0171V2.07489H91.5141L91.5845 2.90656V2.9612C91.7336 2.65362 91.9323 2.41282 92.1808 2.24082C92.4293 2.06882 92.7275 1.98181 93.0712 1.98181C93.1416 1.98181 93.2079 1.98788 93.27 1.998C93.3342 2.00812 93.386 2.02026 93.4253 2.0324L93.3549 2.55042Z" fill="#EFEBE7"/>
<path d="M95.8625 5.72332L96.0426 6.32026H96.0716L97.6184 2.0749H98.252L96.0281 7.87837C95.8956 8.21832 95.7237 8.50566 95.5125 8.74242C95.3013 8.97917 94.9928 9.09856 94.5848 9.09856C94.5186 9.09856 94.4378 9.09046 94.3426 9.07832C94.2473 9.06416 94.179 9.04999 94.1334 9.0338L94.1997 8.57244C94.237 8.57851 94.2991 8.58458 94.3819 8.59268C94.4647 8.60077 94.5269 8.60482 94.5641 8.60482C94.8105 8.60482 95.0073 8.51983 95.1563 8.34783C95.3054 8.17583 95.4297 7.95729 95.5353 7.68816L95.8045 7.0123L93.827 2.07288H94.4565L95.8625 5.72129V5.72332Z" fill="#EFEBE7"/>
<path d="M103.271 4.7156C103.271 5.4643 103.098 6.06124 102.752 6.50844C102.404 6.95362 101.928 7.1762 101.319 7.1762C100.963 7.1762 100.65 7.10943 100.379 6.9779C100.11 6.84637 99.8879 6.65818 99.7181 6.41333V9.00345H99.1508V2.07489H99.5856L99.6891 2.85597C99.8589 2.57875 100.081 2.36426 100.352 2.21047C100.623 2.05871 100.942 1.98181 101.308 1.98181C101.923 1.98181 102.404 2.22059 102.752 2.70016C103.1 3.17974 103.271 3.81917 103.271 4.61644V4.71357V4.7156ZM102.704 4.61847C102.704 3.98308 102.576 3.46506 102.317 3.0644C102.058 2.66374 101.679 2.46341 101.182 2.46341C100.807 2.46341 100.501 2.55042 100.263 2.72647C100.025 2.90252 99.8444 3.13117 99.7202 3.41042V5.83258C99.8527 6.10373 100.041 6.31823 100.283 6.47404C100.526 6.62985 100.83 6.70675 101.192 6.70675C101.687 6.70675 102.064 6.52463 102.321 6.16039C102.578 5.79616 102.706 5.31456 102.706 4.71357V4.61644L102.704 4.61847Z" fill="#EFEBE7"/>
<path d="M105.429 0.794016V2.07491H106.556V2.52818H105.429V5.78808C105.429 6.11387 105.489 6.34657 105.611 6.48417C105.734 6.62177 105.895 6.69057 106.096 6.69057C106.164 6.69057 106.233 6.68652 106.297 6.67843C106.361 6.67034 106.438 6.6582 106.527 6.63998L106.612 7.05076C106.535 7.08718 106.442 7.11754 106.33 7.13979C106.218 7.16205 106.106 7.17419 105.997 7.17419C105.636 7.17419 105.357 7.0629 105.156 6.84031C104.955 6.61772 104.856 6.26765 104.856 5.78606V2.52615H103.971V2.07288H104.856V0.791992H105.429V0.794016Z" fill="#EFEBE7"/>
<path d="M107.347 4.50111C107.347 3.76455 107.554 3.15951 107.966 2.68803C108.38 2.21655 108.927 1.9798 109.608 1.9798C110.289 1.9798 110.842 2.21453 111.254 2.68803C111.668 3.15951 111.873 3.76455 111.873 4.50111V4.65288C111.873 5.39349 111.668 5.99852 111.256 6.46798C110.844 6.93744 110.297 7.17419 109.616 7.17419C108.935 7.17419 108.378 6.93946 107.964 6.46798C107.55 5.9965 107.345 5.39349 107.345 4.65288V4.50111H107.347ZM107.914 4.6549C107.914 5.23363 108.063 5.7213 108.363 6.11588C108.664 6.51047 109.082 6.70878 109.618 6.70878C110.155 6.70878 110.558 6.51047 110.861 6.11588C111.161 5.7213 111.312 5.23363 111.312 4.6549V4.50313C111.312 3.9325 111.161 3.44888 110.859 3.05024C110.556 2.65363 110.14 2.4533 109.61 2.4533C109.08 2.4533 108.666 2.65161 108.365 3.05024C108.065 3.44888 107.916 3.9325 107.916 4.50313V4.6549H107.914Z" fill="#EFEBE7"/>
<path d="M87.3727 12.5527L89.3171 9.67725H90.0025L87.7123 12.9979L90.0791 16.4095H89.402L87.381 13.441L85.3641 16.4095H84.6787L87.0455 12.9979L84.7512 9.67725H85.4366L87.3727 12.5527Z" fill="#EFEBE7"/>
<path d="M95.2143 14.046C95.2143 14.7947 95.0404 15.3917 94.6946 15.8389C94.3467 16.284 93.8704 16.5066 93.2617 16.5066C92.9055 16.5066 92.5928 16.4399 92.3215 16.3083C92.0524 16.1768 91.8308 15.9886 91.661 15.7438V18.3339H91.0936V11.4074H91.5285L91.632 12.1884C91.8018 11.9112 92.0234 11.6967 92.2946 11.5429C92.5659 11.3912 92.8848 11.3143 93.2513 11.3143C93.8663 11.3143 94.3467 11.553 94.6946 12.0326C95.0424 12.5122 95.2143 13.1516 95.2143 13.9489V14.046ZM94.6449 13.9489C94.6449 13.3135 94.5165 12.7955 94.2577 12.3948C93.9988 11.9942 93.6199 11.7938 93.1229 11.7938C92.7481 11.7938 92.4416 11.8809 92.2035 12.0569C91.9654 12.233 91.7852 12.4616 91.661 12.7409V15.163C91.7935 15.4342 91.982 15.6487 92.2242 15.8045C92.4665 15.9603 92.7709 16.0372 93.1333 16.0372C93.6282 16.0372 94.005 15.8551 94.2618 15.4908C94.5186 15.1266 94.6469 14.645 94.6469 14.044V13.9469L94.6449 13.9489Z" fill="#EFEBE7"/>
<path d="M98.4302 16.5066C97.7676 16.5066 97.2292 16.278 96.8171 15.8207C96.403 15.3633 96.198 14.7745 96.198 14.0561V13.8012C96.198 13.0808 96.4071 12.4839 96.8254 12.0164C97.2437 11.547 97.7614 11.3143 98.3805 11.3143C98.9996 11.3143 99.4821 11.5085 99.8217 11.8991C100.161 12.2896 100.331 12.8137 100.331 13.4734V13.9024H96.7674V14.0541C96.7674 14.6248 96.9144 15.0983 97.2106 15.4746C97.5046 15.851 97.9125 16.0392 98.4343 16.0392C98.747 16.0392 99.0328 15.9886 99.2957 15.8895C99.5567 15.7903 99.7762 15.6547 99.948 15.4848L100.19 15.8632C100.01 16.0473 99.7741 16.2011 99.4821 16.3225C99.1901 16.4439 98.8402 16.5046 98.4343 16.5046L98.4302 16.5066ZM98.3784 11.7837C97.9436 11.7837 97.5854 11.9355 97.3037 12.241C97.0221 12.5466 96.8585 12.9331 96.8109 13.4025L96.8254 13.4309H99.7596V13.3155C99.7596 12.8724 99.6416 12.5061 99.4034 12.2168C99.1653 11.9274 98.8236 11.7837 98.3784 11.7837Z" fill="#EFEBE7"/>
<path d="M103.812 11.8829L103.41 11.8546C103.054 11.8546 102.76 11.9517 102.532 12.148C102.304 12.3442 102.141 12.6134 102.044 12.9553V16.4095H101.476V11.4074H101.973L102.044 12.239V12.2937C102.191 11.9861 102.389 11.7453 102.64 11.5733C102.888 11.4013 103.187 11.3143 103.53 11.3143C103.599 11.3143 103.665 11.3203 103.729 11.3305C103.791 11.3406 103.845 11.3527 103.884 11.3649L103.814 11.8829H103.812Z" fill="#EFEBE7"/>
<path d="M105.746 10.1245V11.4054H106.872V11.8586H105.746V15.1185C105.746 15.4443 105.806 15.677 105.928 15.8146C106.05 15.9522 106.212 16.021 106.413 16.021C106.483 16.021 106.549 16.017 106.614 16.0089C106.678 16.0008 106.754 15.9886 106.843 15.9704L106.928 16.3812C106.852 16.4176 106.759 16.448 106.647 16.4702C106.535 16.4925 106.423 16.5046 106.313 16.5046C105.953 16.5046 105.674 16.3933 105.473 16.1708C105.272 15.9482 105.172 15.5981 105.172 15.1165V11.8566H104.288V11.4033H105.172V10.1224H105.744L105.746 10.1245Z" fill="#EFEBE7"/>
<path d="M111.045 15.1287C111.045 14.8939 110.945 14.6896 110.749 14.5155C110.552 14.3415 110.196 14.1978 109.682 14.0886C109.076 13.9651 108.626 13.7972 108.332 13.5827C108.038 13.3682 107.889 13.0687 107.889 12.6842C107.889 12.2998 108.055 11.978 108.384 11.713C108.713 11.4479 109.15 11.3163 109.693 11.3163C110.264 11.3163 110.72 11.458 111.059 11.7393C111.401 12.0205 111.563 12.3686 111.546 12.7814L111.536 12.8097H111.01C111.01 12.5345 110.89 12.2957 110.647 12.0934C110.405 11.891 110.086 11.7878 109.689 11.7878C109.291 11.7878 108.97 11.8748 108.761 12.0509C108.554 12.2269 108.448 12.4313 108.448 12.666C108.448 12.9008 108.537 13.0829 108.715 13.2326C108.893 13.3824 109.25 13.5139 109.782 13.6272C110.38 13.7567 110.834 13.9368 111.142 14.1675C111.451 14.3982 111.604 14.7098 111.604 15.1024C111.604 15.5192 111.432 15.8571 111.086 16.1182C110.74 16.3792 110.285 16.5087 109.715 16.5087C109.094 16.5087 108.606 16.363 108.252 16.0737C107.897 15.7843 107.728 15.4383 107.748 15.0376L107.759 15.0093H108.278C108.301 15.3695 108.45 15.6325 108.73 15.7944C109.009 15.9583 109.339 16.0393 109.715 16.0393C110.125 16.0393 110.449 15.9502 110.685 15.7701C110.921 15.5921 111.039 15.3776 111.039 15.1266L111.045 15.1287Z" fill="#EFEBE7"/>
<path d="M85.5277 25.6429V21.094H84.6808V20.6407H85.5277V19.9103C85.5277 19.4084 85.6561 19.0199 85.9149 18.7447C86.1738 18.4695 86.5341 18.3339 86.9979 18.3339C87.0994 18.3339 87.2029 18.342 87.3106 18.3562C87.4182 18.3724 87.528 18.3926 87.6419 18.4209L87.5653 18.8783C87.4886 18.86 87.412 18.8459 87.3333 18.8337C87.2547 18.8236 87.1615 18.8175 87.0538 18.8175C86.7453 18.8175 86.5071 18.9127 86.3415 19.1049C86.1758 19.2951 86.093 19.5642 86.093 19.9103V20.6407H87.2526V21.094H86.093V25.6429H85.5256H85.5277Z" fill="#EFEBE7"/>
<path d="M87.9359 23.0669C87.9359 22.3303 88.143 21.7253 88.555 21.2538C88.9692 20.7823 89.5158 20.5456 90.1971 20.5456C90.8784 20.5456 91.4312 20.7803 91.8433 21.2538C92.2574 21.7253 92.4624 22.3303 92.4624 23.0669V23.2187C92.4624 23.9593 92.2575 24.5643 91.8454 25.0338C91.4333 25.5032 90.8867 25.74 90.2054 25.74C89.5241 25.74 88.9671 25.5053 88.553 25.0338C88.1388 24.5643 87.9338 23.9593 87.9338 23.2187V23.0669H87.9359ZM88.5033 23.2207C88.5033 23.7994 88.6524 24.2871 88.9526 24.6817C89.2529 25.0763 89.6712 25.2746 90.2075 25.2746C90.7438 25.2746 91.1476 25.0763 91.4499 24.6817C91.7501 24.2871 91.9013 23.7994 91.9013 23.2207V23.0689C91.9013 22.4983 91.7501 22.0147 91.4478 21.616C91.1455 21.2194 90.7293 21.0191 90.1992 21.0191C89.6691 21.0191 89.2549 21.2174 88.9547 21.616C88.6544 22.0147 88.5054 22.4983 88.5054 23.0689V23.2207H88.5033Z" fill="#EFEBE7"/>
<path d="M95.9847 21.1162L95.583 21.0879C95.2268 21.0879 94.9349 21.185 94.705 21.3813C94.4773 21.5776 94.3137 21.8467 94.2143 22.1887V25.6428H93.6469V20.6407H94.1439L94.2143 21.4724V21.527C94.3634 21.2194 94.5622 20.9786 94.8106 20.8066C95.0591 20.6346 95.3573 20.5476 95.701 20.5476C95.7714 20.5476 95.8377 20.5537 95.8998 20.5638C95.9619 20.5739 96.0158 20.5861 96.0551 20.5982L95.9847 21.1162Z" fill="#EFEBE7"/>
<path d="M100.012 22.8464V25.6429H99.4449V18.9106H101.82C102.543 18.9106 103.102 19.0907 103.497 19.4509C103.893 19.8111 104.092 20.2866 104.092 20.8755C104.092 21.4643 103.893 21.952 103.497 22.3081C103.102 22.6663 102.543 22.8444 101.82 22.8444H100.012V22.8464ZM100.012 22.3729H101.82C102.387 22.3729 102.814 22.2313 103.098 21.95C103.381 21.6687 103.524 21.3126 103.524 20.8836C103.524 20.4546 103.381 20.0944 103.098 19.8091C102.814 19.5238 102.387 19.3821 101.82 19.3821H100.012V22.3749V22.3729Z" fill="#EFEBE7"/>
<path d="M107.624 21.1162L107.222 21.0879C106.866 21.0879 106.574 21.185 106.344 21.3813C106.117 21.5776 105.953 21.8467 105.854 22.1887V25.6428H105.286V20.6407H105.783L105.854 21.4724V21.527C106.003 21.2194 106.201 20.9786 106.45 20.8066C106.698 20.6346 106.997 20.5476 107.34 20.5476C107.411 20.5476 107.477 20.5537 107.539 20.5638C107.601 20.5739 107.655 20.5861 107.694 20.5982L107.624 21.1162Z" fill="#EFEBE7"/>
<path d="M108.183 23.0669C108.183 22.3303 108.39 21.7253 108.802 21.2538C109.217 20.7823 109.763 20.5456 110.444 20.5456C111.126 20.5456 111.679 20.7803 112.091 21.2538C112.505 21.7253 112.71 22.3303 112.71 23.0669V23.2187C112.71 23.9593 112.505 24.5643 112.093 25.0338C111.681 25.5032 111.134 25.74 110.453 25.74C109.772 25.74 109.214 25.5053 108.8 25.0338C108.386 24.5643 108.181 23.9593 108.181 23.2187V23.0669H108.183ZM108.751 23.2207C108.751 23.7994 108.9 24.2871 109.2 24.6817C109.5 25.0763 109.919 25.2746 110.455 25.2746C110.991 25.2746 111.395 25.0763 111.697 24.6817C111.997 24.2871 112.149 23.7994 112.149 23.2207V23.0689C112.149 22.4983 111.997 22.0147 111.695 21.616C111.393 21.2194 110.977 21.0191 110.447 21.0191C109.916 21.0191 109.502 21.2174 109.202 21.616C108.902 22.0147 108.753 22.4983 108.753 23.0689V23.2207H108.751Z" fill="#EFEBE7"/>
<path d="M114.225 25.6429V21.094H113.374V20.6407H114.225V20.0033C114.225 19.4732 114.375 19.0624 114.675 18.771C114.975 18.4796 115.391 18.3339 115.923 18.3339C116.135 18.3339 116.35 18.3562 116.567 18.4027C116.785 18.4493 117.006 18.516 117.23 18.6051L117.135 19.0806C116.942 19.0037 116.756 18.943 116.576 18.9005C116.396 18.858 116.191 18.8358 115.961 18.8358C115.576 18.8358 115.286 18.9369 115.087 19.1373C114.89 19.3376 114.791 19.6249 114.791 20.0013V20.6387H115.988V21.092H114.791V25.6409H114.223L114.225 25.6429ZM117.539 25.6429H116.971V20.6407H117.539V25.6429Z" fill="#EFEBE7"/>
<path d="M119.984 19.3598V20.6407H121.111V21.094H119.984V24.3539C119.984 24.6797 120.044 24.9124 120.166 25.05C120.288 25.1876 120.45 25.2564 120.651 25.2564C120.721 25.2564 120.788 25.2523 120.852 25.2442C120.916 25.2361 120.993 25.224 121.082 25.2058L121.166 25.6166C121.09 25.653 120.997 25.6833 120.885 25.7056C120.773 25.7278 120.661 25.74 120.551 25.74C120.191 25.74 119.912 25.6287 119.711 25.4061C119.51 25.1835 119.41 24.8335 119.41 24.3519V21.0919H118.526V20.6387H119.41V19.3578H119.982L119.984 19.3598Z" fill="#EFEBE7"/>
<path d="M125.283 24.3621C125.283 24.1273 125.184 23.923 124.987 23.7489C124.79 23.5749 124.434 23.4312 123.921 23.322C123.314 23.1985 122.864 23.0306 122.57 22.8161C122.276 22.6016 122.127 22.3021 122.127 21.9176C122.127 21.5332 122.293 21.2114 122.622 20.9464C122.951 20.6813 123.388 20.5497 123.931 20.5497C124.502 20.5497 124.958 20.6914 125.298 20.9727C125.639 21.2539 125.801 21.602 125.784 22.0148L125.774 22.0431H125.248C125.248 21.7679 125.128 21.5291 124.885 21.3268C124.643 21.1244 124.324 21.0212 123.927 21.0212C123.529 21.0212 123.208 21.1082 122.999 21.2843C122.79 21.4603 122.686 21.6647 122.686 21.8994C122.686 22.1342 122.775 22.3163 122.954 22.466C123.132 22.6158 123.488 22.7473 124.02 22.8606C124.62 22.9901 125.072 23.1702 125.38 23.4009C125.689 23.6316 125.842 23.9432 125.842 24.3358C125.842 24.7526 125.67 25.0905 125.324 25.3516C124.979 25.6126 124.523 25.7421 123.954 25.7421C123.332 25.7421 122.844 25.5964 122.49 25.3071C122.136 25.0177 121.966 24.6717 121.986 24.271L121.997 24.2427H122.517C122.539 24.6029 122.688 24.8659 122.968 25.0278C123.248 25.1917 123.577 25.2727 123.954 25.2727C124.364 25.2727 124.687 25.1836 124.923 25.0035C125.159 24.8255 125.277 24.611 125.277 24.36L125.283 24.3621Z" fill="#EFEBE7"/>
<path d="M41.2787 24.4396H48.8282L39.5685 14.8574L35.7889 18.7595L41.2787 24.4396Z" fill="#EFEBE7"/>
<path d="M28.368 3.67822L20.3049 3.70152L29.2886 12.4619L33.3441 8.51846L28.368 3.67822Z" fill="#EFEBE7"/>
<path d="M45.5684 8.78825C49.2034 8.81597 55.9198 8.86488 62.0076 8.89423C63.3848 8.89423 64.6738 10.0633 64.6738 11.5014C64.6738 12.9395 63.67 14.1086 62.0076 14.1086H51.7145V24.4395H57.0553V18.9545L62.3277 18.9235C67.0732 18.9447 70.0879 14.9809 70.0079 11.3628C70.1696 8.89423 68.2204 3.67822 62.0076 3.67822H50.7808L45.5684 8.78825Z" fill="#EFEBE7"/>
<path d="M21.8033 19.2887C18.1008 19.2724 15.5917 19.2512 11.2583 19.2512C8.62979 19.2512 6.36583 17.0647 6.15333 14.4722C5.90486 11.4558 8.54642 9.02956 11.4544 8.90402C12.7196 8.85021 18.6174 8.89749 22.7497 8.87793C20.9582 7.05338 19.3382 5.50277 17.5467 3.67822H11.0785C6.14679 3.67822 0.745972 7.71863 0.745972 13.7189C0.745972 19.7192 5.17418 24.4395 11.1013 24.4395H16.6526L21.8016 19.2887H21.8033Z" fill="#EFEBE7"/>
<path d="M19.4898 24.4395H27.2236L48.0132 3.67822H40.2533L19.4898 24.4395Z" fill="#EFEBE7"/>
<path d="M77.5555 0.102051V25.898" stroke="#EDBA00" stroke-width="2.8105" stroke-miterlimit="10"/>
</svg>
