<svg width="24" height="24" viewBox="0 0 24 24" fill="none" xmlns="http://www.w3.org/2000/svg">
<g clip-path="url(#clip0_27_455)">
<path opacity="0.5" d="M18.7491 9V9.7041C18.7491 10.5491 18.9903 11.3752 19.4422 12.0782L20.5496 13.8012C21.5612 15.3749 20.789 17.5139 19.0296 18.0116C14.4273 19.3134 9.57274 19.3134 4.97036 18.0116C3.21105 17.5139 2.43882 15.3749 3.45036 13.8012L4.5578 12.0782C5.00972 11.3752 5.25087 10.5491 5.25087 9.7041V9C5.25087 5.13401 8.27256 2 12 2C15.7274 2 18.7491 5.13401 18.7491 9Z" fill="white"/>
<g filter="url(#filter0_d_27_455)">
<circle cx="18" cy="6" r="4" fill="#FD4921"/>
<circle cx="18" cy="6" r="4" stroke="#06050F"/>
</g>
<path d="M12.75 6C12.75 5.58579 12.4142 5.25 12 5.25C11.5858 5.25 11.25 5.58579 11.25 6V10C11.25 10.4142 11.5858 10.75 12 10.75C12.4142 10.75 12.75 10.4142 12.75 10V6Z" fill="white"/>
<path d="M7.24316 18.5449C7.8941 20.5501 9.77767 21.9997 11.9998 21.9997C14.222 21.9997 16.1055 20.5501 16.7565 18.5449C13.611 19.1352 10.3886 19.1352 7.24316 18.5449Z" fill="white"/>
</g>
<defs>
<filter id="filter0_d_27_455" x="7.5" y="-0.5" width="17" height="17" filterUnits="userSpaceOnUse" color-interpolation-filters="sRGB">
<feFlood flood-opacity="0" result="BackgroundImageFix"/>
<feColorMatrix in="SourceAlpha" type="matrix" values="0 0 0 0 0 0 0 0 0 0 0 0 0 0 0 0 0 0 127 0" result="hardAlpha"/>
<feOffset dx="-2" dy="2"/>
<feGaussianBlur stdDeviation="2"/>
<feComposite in2="hardAlpha" operator="out"/>
<feColorMatrix type="matrix" values="0 0 0 0 0.992157 0 0 0 0 0.286275 0 0 0 0 0.129412 0 0 0 0.32 0"/>
<feBlend mode="normal" in2="BackgroundImageFix" result="effect1_dropShadow_27_455"/>
<feBlend mode="normal" in="SourceGraphic" in2="effect1_dropShadow_27_455" result="shape"/>
</filter>
<clipPath id="clip0_27_455">
<rect width="24" height="24" rx="5" fill="white"/>
</clipPath>
</defs>
</svg>
